<svg version="1.1" viewBox="0 0 512 512" xmlns="http://www.w3.org/2000/svg">
    <rect width="512" height="512" rx="96" fill="#0b6d73"/>
    <path d="m85.573 401.77c197.73 21.467 197.41-160.01 88.368-154.94-130.28 6.0621-104.12-189.06 89.24-137.91" fill="none" stroke="#fbbb34" stroke-linecap="round" stroke-width="38.716"/>
    <circle cx="78.612" cy="402.18" r="28" fill="#293559"/>
    <circle cx="267.96" cy="109.82" r="28" fill="#293559"/>
    <path d="m329.99 338.57q9.5021-23.913 14.725-38.071 2.7688-7.4884 5.4747-15.04 3.7127-8.9357 7.9918-13.781 2.8318-3.2093 6.7962-3.2093 3.5869 0 6.2928 2.5171 2.7059 2.4542 2.7059 6.0411 0 2.5171-1.699 4.9713-3.3981 4.9084-6.2298 11.83-0.12586 0.25171-4.6567 12.46-5.6635 14.536-16.865 43.609-2.8947 7.6143-7.1108 15.229-2.7059 4.9084-7.866 4.9084-6.5445 0-9.1245-6.1669-7.6772-18.312-17.053-52.796-2.58-8.4952-5.223-16.99-3.524-11.83-3.524-16.424 0-3.7127 2.7688-6.1669 2.643-2.2654 6.1669-2.2654 6.0411 0 8.4323 6.2928 1.2586 5.4747 2.5171 10.886 2.0766 6.7962 5.9781 20.389 4.9084 17.997 9.5021 31.779zm131.08-10.572q-4.2791 18.752-17.242 30.017-13.152 11.327-30.835 11.327-16.739 0-25.108-8.8099-8.3694-8.8728-8.3694-26.556 0-16.11 7.9289-33.037 7.9289-16.928 20.389-27.436 8.747-7.3626 18.752-7.3626 6.104 0 16.613 4.4049 12.46 5.223 12.46 11.138 0 3.3981-2.58 6.104-2.58 2.643-6.3557 2.643-1.8878 0-8.3694-3.524-6.4186-3.5869-11.767-3.5869-5.6635 0-15.291 12.208-14.033 17.746-14.033 38.449 0 10.509 3.0835 14.285 3.2722 3.9644 12.648 3.9644 9.6279 0 16.928-5.4747 7.7401-5.7894 11.453-16.865-14.599 1.1327-25.423 5.9781-1.9508 0.88099-3.9015 0.88099-3.9015 0-6.4816-2.8947-2.3283-2.58-2.3283-5.8523 0-9.6279 22.78-13.467 12.837-2.1395 29.954-2.1395 3.7757 0 6.2928 2.4542 2.58 2.4542 2.58 6.0411 0 4.5937-3.7757 7.1108z" fill="#fbbb34" stroke-width="10.74"/>
</svg>
